<?xml version="1.0" encoding="UTF-8"?>
<svg version="1.1" xmlns="http://www.w3.org/2000/svg" width="512" height="512">
<path d="M0 0 C0.70189453 0.33725098 1.40378906 0.67450195 2.12695312 1.02197266 C23.41085316 11.41242154 41.88786425 25.75119841 59 42 C59.53415527 42.50547363 60.06831055 43.01094727 60.61865234 43.53173828 C68.91670386 51.44016361 76.1761515 59.79728921 83 69 C83.4237793 69.56299805 83.84755859 70.12599609 84.28417969 70.70605469 C121.28976672 119.9994308 136.9601537 183.54712486 128.47875977 244.53686523 C121.93125218 286.08128732 105.66542188 325.34329662 79 358 C78.1853125 359.01835937 77.370625 360.03671875 76.53125 361.0859375 C64.9470585 375.34272322 51.82181337 388.15581613 37 399 C35.87216154 399.84604192 34.74455819 400.69239736 33.6171875 401.5390625 C3.08506681 424.18699466 -32.57448312 438.05976728 -70 444 C-70.74942871 444.12842285 -71.49885742 444.2568457 -72.27099609 444.38916016 C-96.0466866 448.37126808 -122.3777351 447.2531058 -146 443 C-146.89477051 442.83902832 -147.78954102 442.67805664 -148.71142578 442.51220703 C-193.91184566 433.99879341 -235.35401482 412.74054643 -268.265625 380.6875 C-269.90547243 379.09197277 -271.56040286 377.51375075 -273.21875 375.9375 C-280.09008891 369.32733317 -286.07260707 362.24020003 -291.78759766 354.61376953 C-292.85830727 353.18860026 -293.94916093 351.77861319 -295.04296875 350.37109375 C-325.02199477 310.87295432 -340.56098631 260.79790951 -340.3125 211.4375 C-340.31034485 210.65796967 -340.3081897 209.87843933 -340.30596924 209.07528687 C-340.10522829 163.50883115 -327.06526406 117.68471913 -301 80 C-300.35297119 79.06220703 -300.35297119 79.06220703 -299.69287109 78.10546875 C-285.55740428 57.83379527 -268.66943071 38.87206215 -248.6796875 24.23095703 C-247.0029241 23.00214293 -245.34512847 21.75055492 -243.6875 20.49609375 C-213.58364685 -1.96776636 -177.92309939 -15.8953247 -141 -22 C-140.27683594 -22.12842285 -139.55367187 -22.2568457 -138.80859375 -22.38916016 C-92.03071043 -30.44460008 -42.27173851 -20.32588328 0 0 Z M-129.0559082 140.44067383 C-130.13342866 141.51468776 -131.21202683 142.58762138 -132.29161072 143.65956116 C-135.20363793 146.55740906 -138.09987451 149.4705704 -140.99301934 152.38725495 C-144.03127294 155.44570079 -147.08259709 158.49105788 -150.13212585 161.53825378 C-155.24884317 166.65502457 -160.35564465 171.78152595 -165.45629883 176.91430664 C-171.34463819 182.83955403 -177.24692858 188.75060809 -183.15723163 194.65394193 C-188.85562836 200.34602366 -194.54543551 206.04661233 -200.23091698 211.75159264 C-202.64496442 214.17379227 -205.06169908 216.59326231 -207.48061562 219.01059914 C-210.33012091 221.85922255 -213.17192057 224.71532297 -216.00805092 227.57726097 C-217.0471109 228.62345455 -218.08868715 229.66715623 -219.13300705 230.70809937 C-228.99272472 240.19108713 -228.99272472 240.19108713 -233.09375 252.89453125 C-232.80008942 259.48965836 -230.07117347 264.81419671 -225.59765625 269.5625 C-221.15674179 273.55823722 -215.92060588 275.13036196 -210 275 C-198.2850187 273.38998449 -189.96653308 262.11750798 -182.06201172 254.17553711 C-181.23149796 253.34516937 -180.40098419 252.51480164 -179.54530334 251.65927124 C-176.83771706 248.95099582 -174.13367653 246.23921032 -171.4296875 243.52734375 C-169.53847782 241.63426634 -167.64707098 239.74138799 -165.75540161 237.84877014 C-161.30901381 233.39929371 -156.86517775 228.94727807 -152.42228901 224.49430805 C-147.35765227 219.41843283 -142.29012218 214.34545028 -137.22236609 209.2726897 C-126.81172448 198.85163969 -116.40465897 188.42702333 -106 178 C-102.76845691 179.42003651 -100.6277768 181.13004553 -98.14933777 183.63034058 C-97.02035316 184.76170441 -97.02035316 184.76170441 -95.86856079 185.91592407 C-95.05237274 186.74401581 -94.23618469 187.57210754 -93.39526367 188.42529297 C-92.52810226 189.2969812 -91.66094086 190.16866943 -90.76750183 191.06677246 C-88.88391295 192.96132502 -87.00222406 194.85756937 -85.12340355 196.75683212 C-82.14885402 199.7632496 -79.1661109 202.76144688 -76.18196106 205.7583313 C-68.76948121 213.20486959 -61.3662946 220.66062885 -53.96807861 228.12133789 C-48.22070204 233.91724009 -42.47012787 239.70987822 -36.70890409 245.49202073 C-33.74561375 248.46679646 -30.78939079 251.44836507 -27.83836591 254.43530631 C-25.56260633 256.73487296 -23.27697691 259.02459712 -20.99291992 261.31591797 C-20.18280457 262.13996124 -19.37268921 262.96400452 -18.5380249 263.8130188 C-12.62341165 269.71804521 -7.04966747 274.56572236 1.6015625 275.15625 C7.79348493 274.75286743 13.21880709 272.3028468 17.4375 267.75 C21.16961859 262.76677347 23.3474415 257.86409085 23.0625 251.5625 C21.24691894 241.399575 12.53904017 234.09590658 5.54760742 227.12768555 C4.49669665 226.06942024 3.44640573 225.01053909 2.39668274 223.95109558 C-0.43517658 221.09716505 -3.27645726 218.25280139 -6.12032151 215.41083884 C-8.50109622 213.03018443 -10.87750198 210.64519125 -13.25405711 208.26032573 C-18.86262855 202.63257459 -24.47927421 197.01297195 -30.10083008 191.39819336 C-35.88657965 185.61909094 -41.65739112 179.82536885 -47.4212597 174.02445 C-52.38572749 169.02924034 -57.3598598 164.04379744 -62.3416664 159.06588012 C-65.31039325 156.09921492 -68.27527292 153.12895086 -71.23066139 150.14899254 C-74.00951351 147.34779975 -76.80028349 144.55904217 -79.60043526 141.77914619 C-80.6217729 140.76120485 -81.63892241 139.73904001 -82.65135574 138.71224213 C-89.10589037 132.17253649 -95.4143185 126.13284007 -105 125.5 C-115.453305 126.19423366 -122.08997866 133.37809155 -129.0559082 140.44067383 Z " fill="#000000" transform="translate(361,45)"/>
</svg>
